<svg width="512" height="512" viewBox="0 0 512 512" fill="none" xmlns="http://www.w3.org/2000/svg">
<rect width="512" height="512" fill="#151515"/>
<path d="M156.637 313.109C144.223 313.109 134.278 310.076 126.801 304.01C119.325 297.944 115.587 289.622 115.587 279.042C115.587 269.167 119.254 261.268 126.59 255.343C134.066 249.418 144.223 245.892 157.06 244.763L205.939 240.108C205.516 234.465 202.06 229.74 195.571 225.931C189.223 222.122 180.759 220.218 170.179 220.218C157.624 220.218 147.538 222.404 139.92 226.777C132.303 231.009 126.449 236.017 122.358 241.801C122.217 234.465 124.192 227.483 128.283 220.853C132.374 214.081 138.439 208.58 146.48 204.348C154.662 200.116 164.325 198 175.469 198C188.447 198 199.097 200.257 207.42 204.771C215.884 209.285 222.02 215.069 225.829 222.122C229.638 229.034 231.542 236.37 231.542 244.128V310.358H205.516V273.54C204.951 281.299 202.553 288.211 198.321 294.277C194.089 300.201 188.376 304.857 181.182 308.242C173.988 311.487 165.806 313.109 156.637 313.109ZM142.248 278.195C142.248 282.286 143.941 285.39 147.326 287.506C150.853 289.481 155.72 290.468 161.927 290.468C170.249 290.468 177.655 288.987 184.144 286.024C190.774 283.062 195.923 279.324 199.591 274.81C203.4 270.155 205.516 265.5 205.939 260.844L160.022 265.288C154.239 265.852 149.795 267.263 146.692 269.52C143.729 271.636 142.248 274.528 142.248 278.195Z" fill="white"/>
<path d="M270.182 203.02H296.631V239.203C296.631 227.072 300.228 217.55 307.423 210.638C314.758 203.726 324.562 200.27 336.835 200.27C348.261 200.27 357.924 203.514 365.823 210.003C373.864 216.351 378.449 226.084 379.577 239.203C380.142 226.931 384.091 217.409 391.427 210.638C398.762 203.726 408.213 200.27 419.781 200.27C428.95 200.27 436.709 202.033 443.057 205.559C449.546 208.945 454.412 213.6 457.657 219.525C461.042 225.309 462.735 231.656 462.735 238.569V312.628H436.285V247.879C436.285 241.249 433.746 235.888 428.668 231.798C423.59 227.707 416.818 225.661 408.355 225.661C400.173 225.661 393.331 227.848 387.83 232.221C382.469 236.453 379.789 242.025 379.789 248.937V312.628H353.339V247.879C353.339 241.39 350.659 236.1 345.299 232.009C339.938 227.777 333.238 225.661 325.197 225.661C316.733 225.661 309.821 227.848 304.46 232.221C299.241 236.594 296.631 242.166 296.631 248.937V312.628H270.182V203.02Z" fill="white"/>
<path d="M50 202.741H81.0812V233.822H50V202.741Z" fill="white"/>
<path d="M50 279.069H81.0812V310.15H50V279.069Z" fill="white"/>
</svg>
